<?xml version="1.0" encoding="utf-8"?>
<!-- Generator: Adobe Illustrator 24.3.0, SVG Export Plug-In . SVG Version: 6.00 Build 0)  -->
<svg version="1.1" id="Layer_1" xmlns="http://www.w3.org/2000/svg" xmlns:xlink="http://www.w3.org/1999/xlink" x="0px" y="0px"
	 viewBox="0 0 240.3 426.1" style="enable-background:new 0 0 240.3 426.1;" xml:space="preserve">
<style type="text/css">
	.st0{fill:#B46868;}
</style>
<g id="Layer_2_1_">
	<g id="Layer_1-2">
		<path class="st0" d="M80.8,133c-2.2,2.8-3.7,4.5-5,6.3c-2.6,3.5-4.6,7.6-7.8,10.4c-16.5,14.7-37.2,24.1-59.1,26.8
			c-4.3,0.6-7.4-2.1-8.5-6.2s0.3-7.6,4.1-9.8c1.5-0.8,3-1.5,4.6-2.1c2.6-1.1,5.3-2.1,8-2.9c24.3-6.3,39.5-22.5,49.5-44.8
			c3.7-8.3,9-15.9,14.2-23.4c5.7-8.5,15.1-13.8,25.4-14c9.1-0.4,18.3-0.4,27.5-0.1c9.4,0.2,18.1,4.9,23.4,12.6
			c5.7,7.9,10.5,16.5,15.5,25c3.6,6.2,6.8,12.6,10.4,18.7c4.1,7.1,10.3,12.8,17.9,16.1c10.3,4.6,20.6,9.3,30.9,14.1
			c7.1,3.3,9.9,7.7,8.4,12.4c-1.4,4.5-6.6,6.4-14.2,4.8c-18.3-3.8-35.6-11.8-50.4-23.2c-4.4-3.3-7.4-8.4-11.1-12.8
			c-1.7-2-3.2-4.1-5.8-7.4c-2.2,12.6-4.4,23.9-6.1,35.3c-0.2,1.1,1.7,3,3,3.7c6.9,3.4,14.1,6.1,20.9,9.6c8.5,4.2,16.7,8.9,24.6,14.1
			c6.5,4.4,11.9,10.4,9.8,19.2c-2.1,9.1-9.4,12.4-17.7,13.9c-14.8,2.7-29.6,0.6-44.2-1.5c-10.1-1.5-20.2-3.4-31.4-5.3
			c12.2-11.4,28.4-10.7,41.5-17.1l-0.4-1.7c-10.3,2.1-20.7,3.4-30.7,6.3c-14.3,4.2-28.3,9.9-42.5,14.4c-14.7,4.7-30.3,5.6-45.5,2.8
			c-14.8-2.7-19.7-15.6-9.8-27c4.7-5.4,10.5-9.7,16.9-12.9c11.2-5.5,22.9-9.9,34.5-14.5c3.2-1.3,4.2-2.8,3.7-6.2
			C83.4,156,82.2,145.1,80.8,133z"/>
		<path class="st0" d="M86.1,33.6C86.1,15.1,101,0.1,119.5,0s33.5,14.9,33.6,33.4c0.1,18.4-14.7,33.4-33.1,33.6
			c-18.4,0.3-33.6-14.4-33.9-32.8C86.1,34,86.1,33.8,86.1,33.6z"/>
		<path class="st0" d="M196.1,421.4c0.4,1.2,0.7,2.5,1.4,4.7c-3.2-1.1-6.6-0.4-4.5-4.7c0.6,1,1.2,2,1.7,2.9L196.1,421.4z"/>
	</g>
</g>
</svg>
