<?xml version="1.0" encoding="utf-8"?>
<!-- Generator: Adobe Illustrator 24.3.0, SVG Export Plug-In . SVG Version: 6.00 Build 0)  -->
<svg version="1.1" id="Layer_1" xmlns="http://www.w3.org/2000/svg" xmlns:xlink="http://www.w3.org/1999/xlink" x="0px" y="0px"
	 viewBox="0 0 411.9 366.4" style="enable-background:new 0 0 411.9 366.4;" xml:space="preserve">
<style type="text/css">
	.st0{fill:#B46868;}
</style>
<g id="Layer_2_1_">
	<g id="Layer_1-2">
		<path class="st0" d="M254.1,67.1c-58.8-52.9-138-39.6-180.5,1.2C30,110.1,18.4,176.6,50,231c30.4,52.4,91.1,77.3,151.2,60.8
			c51.4-14.1,108.4-72.7,92.8-154.5c8.8-3.9,18.4-5.6,27.9-4.8c2.9,0.2,3.9,1.1,4.3,4c8.7,57.6-7.9,106.9-49.3,147.7
			c-2.7,2.7-2.7,4.8-1.7,7.8c7,21.7,13.9,43.5,21.1,65.1c1.2,3.6,0.9,6.4-2.3,8.1c-3,1.7-5.9,0.9-8.5-1.7
			c-17-16.6-34.2-33-51.7-49.9c-21.7,10.2-45.4,15.4-69.4,15.4c-24.2,0.1-48.1-5.2-70-15.4c-8.4,8.1-16.9,16.4-25.5,24.7
			s-17.3,16.6-25.9,24.9c-2.6,2.5-5.4,4.3-8.8,2.1s-3.2-5.2-2.1-8.8c7.1-21.7,13.9-43.5,21.1-65.2c1.1-3.4,0.4-5.3-2-7.6
			C26.1,260,9.6,231.1,3.3,197c-9.3-50,1.2-95.6,33.2-135.6C59.9,32,90.1,12.6,126.8,4.5c49.6-11.1,95.3-1.6,136.5,28.7
			c3.2,2.3,6.3,4.8,9.3,7.5c1,0.9,1.8,3.2,1.4,4C269.1,53.7,262.9,61.6,254.1,67.1z"/>
		<path class="st0" d="M263,154.4c5.7,38.8-16.6,85.2-61.9,103c-44.8,17.6-95.2,1.7-121.6-40.4c-24.7-39.5-17.8-93.7,16.1-124.9
			c36-33.3,88.6-36.6,128-7.7L207,94c-0.5,0.2-0.9,0.5-1.3,0.8c-8.5,6.8-17.1,7-27.8,4.2c-34.5-9-71.5,14.6-79.3,50.8
			c-8.3,38.6,16.1,75.1,55.2,81.5c37.2,6.1,70.2-19.5,76.5-53.6c0.7-3.8,1.9-6.4,5.7-8.3C245,164.8,253.7,159.6,263,154.4z"/>
		<path class="st0" d="M184.9,134.4c26.4-14.8,52.9-29.4,79.2-44.6c16.6-9.6,28.3-23.9,35.1-41.9c1.1-2.9,3.2-5.3,6-6.6
			c22.4-12.4,44.8-25,67.2-37.6c0.7-0.4,1.4-0.7,2.8-1.4c-4.4,17.4-8.7,34.1-13.2,51.4L411.9,68c-10.5,6-20.2,11.4-29.8,16.9
			c-13.4,7.6-27,14.9-40.2,22.8c-4.2,2.5-8,1.5-11.9,0.8c-17.7-2.9-35.8,0.3-51.4,9c-25.4,13.9-50.6,28.2-75.8,42.5
			c-1.8,1.2-3,3.1-3.3,5.2c-0.9,19.1-16.6,33.6-36.4,33.4c-18-0.2-33.4-15.7-33.9-33.8c-0.4-13.9,5.1-24.7,16.9-31.7
			c12.1-7.2,24.6-6.8,36.8,0.3C183.6,133.8,184.2,134.1,184.9,134.4z"/>
	</g>
</g>
</svg>
