<?xml version="1.0" encoding="utf-8"?>
<!-- Generator: Adobe Illustrator 24.3.0, SVG Export Plug-In . SVG Version: 6.00 Build 0)  -->
<svg version="1.1" id="Layer_1" xmlns="http://www.w3.org/2000/svg" xmlns:xlink="http://www.w3.org/1999/xlink" x="0px" y="0px"
	 viewBox="0 0 307.7 448.5" style="enable-background:new 0 0 307.7 448.5;" xml:space="preserve">
<style type="text/css">
	.st0{fill:#B46868;}
</style>
<g id="Layer_2_1_">
	<g id="Layer_1-2">
		<path class="st0" d="M38.2,43.1V28.5c0-7.8-0.1-15.6,0.1-23.5c0.1-1.7,1-4.3,2.3-4.9s3.8,0.3,5.2,1.3c7.9,6.1,15.7,12.3,23.4,18.7
			c2.8,2.4,4.9,2.4,7.8,0c7.4-6.1,14.9-12.2,22.6-18c1.7-1.2,4.6-2.6,6-1.9s2.4,3.8,2.4,5.9c0.2,10.3,0.1,20.6,0.1,30.9v6h7
			c57.5,0,115.1,0,172.6,0c6.2,0,12.2,0.9,16,6.2c2,2.8,3.8,6.6,3.8,10c0.3,44.2,0.2,88.5,0.2,132.7c-0.1,0.9-0.2,1.7-0.4,2.6h-5.4
			c-18.3,0-36.6-0.2-54.9,0.1c-23.2,0.1-43.1,16.8-47.1,39.7c-4.5,25.4,7.7,48.5,30.7,56.8c5.8,2.1,12.3,2.8,18.6,2.9
			c17.5,0.4,34.9,0.1,52.4,0.1h5.9c0.1,2.2,0.3,4,0.3,5.8c0,43.1,0,86.1,0,129.2c0,13.4-6.1,19.5-19.5,19.5c-89.5,0-178.9,0-268.4,0
			C6,448.5,0,442.4,0,428.7C0,306.8,0,184.9,0,63c0-13.6,6.3-19.9,19.8-19.9C25.7,43,31.6,43.1,38.2,43.1z M78.7,183.4l-0.5,1.2
			c-17.9,0.4-31.6,8.2-38.8,24.7s-4.5,32.2,8,45.3c13.9,14.6,28.3,28.6,42.6,42.8c7.3,7.2,15.4,7.2,22.8-0.2
			c13.9-13.8,28-27.5,41.4-41.8c4.6-5,8.2-10.8,10.6-17.2c6-16.2-0.3-34.2-15.2-46.1c-11.8-9.4-28.8-10.3-43.1-1.9
			c-2.7,1.6-4.6,1.1-7.3,0C92.5,187.7,85.6,185.7,78.7,183.4z"/>
		<path class="st0" d="M307.3,211.7v65.4c-1.3,0.2-2.6,0.4-3.8,0.5c-18.4,0-36.9,0.2-55.3,0c-15.6-0.2-26.4-8.3-31-22.6
			c-4.4-13.5,0.2-28.8,11.1-37.3c5.3-4.1,11.8-6.3,18.6-6.3c19.4-0.2,38.9-0.1,58.3-0.1C305.9,211.4,306.6,211.5,307.3,211.7z
			 M250,257.5c7.2-0.2,12.9-6,13-13.1c0.1-7.2-5.7-13.1-12.9-13.1c-0.2,0-0.3,0-0.5,0c-7.1-0.1-12.9,5.7-12.9,12.7
			c0,0.1,0,0.2,0,0.3c-0.1,7.2,5.6,13.1,12.8,13.2C249.6,257.6,249.8,257.6,250,257.5z"/>
		<path class="st0" d="M100,288.1c-2-2.6-3.8-5.5-6.1-7.8c-11.4-11.6-23.1-22.9-34.5-34.5c-9.1-9.3-11.2-21.7-5.7-32
			c7.1-13.2,24.6-18.6,37.9-10.7c8.2,4.8,14.9,5.1,22.9-0.3c8.7-5.9,20.9-3.6,28.9,3.9c8.4,7.9,10.9,20.7,5.8,30.6
			c-1.6,3.1-3.6,6-6,8.5c-13.2,13.4-26.6,26.5-39.9,39.7C102.8,286.1,102.1,286.5,100,288.1z"/>
	</g>
</g>
</svg>
