<?xml version="1.0" encoding="utf-8"?>
<!-- Generator: Adobe Illustrator 24.3.0, SVG Export Plug-In . SVG Version: 6.00 Build 0)  -->
<svg version="1.1" id="Layer_1" xmlns="http://www.w3.org/2000/svg" xmlns:xlink="http://www.w3.org/1999/xlink" x="0px" y="0px"
	 viewBox="0 0 165.5 176.5" style="enable-background:new 0 0 165.5 176.5;" xml:space="preserve">
<style type="text/css">
	.st0{fill:#B46868;}
</style>
<g id="Layer_2_1_">
	<g id="Layer_1-2">
		<path class="st0" d="M117.3,49.6c-15-6.8-30.4-8.8-46.3-5.7C50.5,48,34.2,65.8,33.1,85.6c-0.3,4.8,1.2,9.6,1.7,14.4
			c0.3,1.9,0.1,3.8-0.5,5.7c-1.7,4.3-3.8,8.4-5.7,12.7c-2.1,4.9-1.2,7.8,3.2,11c1.1,1,1.9,2.2,2.3,3.7c1.5,3.9,2.9,7.9,4.2,11.8
			c0.5,1.3,0.7,2.8,0.6,4.2c-0.9,6.8,2.1,11.8,8.9,12.9c4.6,0.7,9.4,0.3,14.1-0.1c6.2-0.5,8,0.7,8.8,6.7c1.1,7.9,1.3,8.1,9.1,8.1
			c14.9,0,29.8,0,44.6,0c6.1,0,7.5-1.7,6.5-7.8c-0.4-2.1-0.7-4.2-1.1-6.3c-0.7-3.7,0.2-4.9,4.1-5c5.8-0.1,11.5,0,17.2,0
			c7.4,0,11.4-3.9,11.5-11.3c0.1-6.3,0.1-12.5,0-18.8c-0.1-6.9-4.1-10.9-11.1-11c-4.7-0.1-9.4,0-14.7,0c5.6-9.8,7.6-21.2,5.8-32.3
			c7.7-1.1,14-4.4,18.4-10.7c3.1-4.4,4.7-9.8,4.4-15.2c-0.4-11-8-20.4-18.6-23.2C135,31.9,124.9,36.8,117.3,49.6z M102.7,135.4
			c-21.3-1-42.5-4.3-63.1-9.8c-8-2.1-8.2-1.2-4.2-9c3.9-7.6,7.4-15.1,3.3-23.7c-0.1-0.5-0.2-1-0.2-1.5c-1.4-16,9.4-33.2,25.6-39.5
			c16.7-6.5,33.3-4.9,49.5,2.3c1,0.5,1.8,2.1,2.1,3.3c0.6,3,0.3,6.2,1.2,9c2.7,8.6,8.6,14.1,17.3,16.7c1.2,0.4,3,1.7,3.1,2.8
			c1.6,9.6-0.3,19.5-5.4,27.7c-0.9,1.8-2.8,2.8-4.8,2.6c-4.6-0.2-9.2-0.1-13.9,0c-6.3,0.2-10.2,4.1-10.5,10.4
			C102.6,129.4,102.7,132.2,102.7,135.4z M116.3,161.8c-0.1-1.4-0.2-2.8-0.2-4.2c0.4-3.5-0.6-5.7-4.6-6.1c-2.5-0.3-3.3-2.3-3.3-4.7
			c0-6.4-0.1-12.8,0-19.2c0.1-4.2,1.5-5.6,5.7-5.6c12.5-0.1,25-0.1,37.5,0c4.3,0,5.7,1.5,5.8,5.9c0,5.9,0,11.8,0,17.7
			c0,5-1.4,6.4-6.6,6.4c-5.9,0-11.8-0.1-17.6,0.1c-1.9,0.1-3.8,0.7-5.5,1.8C123.9,156.1,120.4,158.8,116.3,161.8L116.3,161.8z
			 M140.6,64.1L140.6,64.1c1.6,0,3.2,0,4.9,0c3.9,0.1,5.1,1.7,4.1,5.5c-1.4,4.9-6.5,7.7-11.4,6.3c-3.1-0.9-5.5-3.4-6.3-6.5
			c-0.9-3.5,0.3-5.2,3.9-5.3C137.3,64,138.9,64.1,140.6,64.1L140.6,64.1z M130.2,56.7c-2.7-0.3-4.5-1.7-4.6-4.4
			c-0.2-2.3,1.4-4.3,3.7-4.5c0.2,0,0.5,0,0.7,0c2.2-0.2,4.1,1.4,4.3,3.6c0,0.2,0,0.4,0,0.5C134.6,54.7,133,56.3,130.2,56.7z
			 M151.3,57c-2.8-0.2-4.6-1.7-4.5-4.5c-0.2-2.3,1.5-4.2,3.8-4.4c0.2,0,0.5,0,0.7,0c2.2-0.1,4.1,1.5,4.3,3.7c0,0.2,0,0.3,0,0.5
			C155.6,55.2,154,56.7,151.3,57L151.3,57z"/>
		<path class="st0" d="M106.7,18.8C106.7,8.4,98.2-0.1,87.7,0S68.8,8.5,68.9,19s8.6,18.9,19,18.8c0,0,0.1,0,0.1,0
			C98.4,37.8,106.8,29.2,106.7,18.8z M87.5,29.9c-2.3-0.9-4.5-1.5-6.3-2.7c-0.9-0.6-0.9-2.4-1.4-3.7c1.3-0.3,2.9-1.3,3.8-0.9
			c2.4,1.5,5.4,1.4,7.7-0.1c0.8-0.4,3.2,0.2,3.4,0.8c0.3,1.1,0,3.1-0.8,3.7C92.1,28.3,89.8,28.9,87.5,29.9z M90.5,12.2
			c2.2-1.4,3.5-2.7,4.6-2.7c1.3,0.4,2.2,1.5,2.5,2.8c-0.3,1.3-1.3,2.3-2.6,2.7C93.8,15.1,92.7,13.7,90.5,12.2L90.5,12.2z M84.9,12.1
			c-1.8,1.5-3,3.1-3.8,3c-1.2-0.2-2.2-1.7-3.3-2.6c1-1,1.9-2.6,3.1-2.9C81.7,9.3,82.9,10.8,84.9,12.1L84.9,12.1z"/>
		<path class="st0" d="M23.3,15.3c-13,0-23.6,10.6-23.5,23.7s10.6,23.6,23.7,23.5S47,51.9,47,38.8c0,0,0,0,0-0.1
			c0-12.9-10.5-23.5-23.4-23.5C23.5,15.3,23.4,15.3,23.3,15.3z M23.4,56.9c-10,0-18.1-8.1-18-18.1s8.1-18.1,18.1-18
			c10,0,18,8.1,18,18.1c0.1,9.9-7.9,18-17.8,18.1C23.6,56.9,23.5,56.9,23.4,56.9z"/>
		<path class="st0" d="M57.3,89.9c0.2,15.5,12.9,28,28.4,27.8s28-12.9,27.8-28.4c-0.2-15.5-12.9-27.9-28.4-27.8
			c-15.5,0.1-27.9,12.7-27.9,28.1C57.3,89.7,57.3,89.8,57.3,89.9z M83.1,70.3c2.2,0.3,4.4,0.8,6.5,1.3c7.1,2.5,8.7,10.6,3.2,16
			c-2.4,2.2-4.5,4.6-6.3,7.2c-1,1.5-0.7,4.1-3.4,3.3s-1.7-3.4-1.1-5.1c0.8-1.8,1.9-3.5,3.3-4.9c1.1-1.3,3-2.1,3.8-3.5
			c1-1.7,2-4,1.5-5.7c-0.8-1.8-2.4-3-4.2-3.4c-3.1-0.2-6.3,0.8-9.5,1.2c-1.1-0.1-2.2-0.3-3.2-0.7c0.5-1,0.7-2.6,1.4-3
			C77.8,72,80.5,71,83.1,70.3z M88.2,105.5c-2.2,1.4-3.5,2.9-4.5,2.7s-2-2-3-3c1.1-1,2.1-2.6,3.3-2.7S86.2,104,88.2,105.5z"/>
		<path class="st0" d="M134.1,140.8c0.1-4.6,0.3-9.2,0.4-13.8c0-0.4-1.1-1.2-1.5-1.1c-0.7,0.2-1.1,0.8-1.3,1.4
			c0.1,4.5,0.3,9,0.5,13.5L134.1,140.8z"/>
		<path class="st0" d="M23.2,41.8c-2.5,1-4.9,2.1-7.2,3.5c-0.8,0.9-1.1,2.2-0.7,3.4c0.5,0.8,2.6,1.4,3.4,1c2.7-1.9,6.4-1.9,9.1,0
			c0.7,0.4,2.9-0.2,3.4-1c0.4-1.2,0.1-2.5-0.8-3.4C28,43.9,25.6,42.7,23.2,41.8z"/>
		<path class="st0" d="M15.5,28.9c-1.5,2.3-3,3.7-2.9,4.9s2.1,3.1,3,2.9c1.5-0.5,2.7-1.6,3.2-3.1C18.9,32.4,17.1,31.1,15.5,28.9z"/>
		<path class="st0" d="M31.1,38.4c1.6-2.2,3.3-3.4,3.3-4.7c0-1.1-1.9-3.1-2.8-3.1c-1.3,0.1-3.2,1.7-3.4,2.8S29.6,36,31.1,38.4z"/>
	</g>
</g>
</svg>
