<?xml version="1.0" encoding="utf-8"?>
<!-- Generator: Adobe Illustrator 24.3.0, SVG Export Plug-In . SVG Version: 6.00 Build 0)  -->
<svg version="1.1" id="Layer_1" xmlns="http://www.w3.org/2000/svg" xmlns:xlink="http://www.w3.org/1999/xlink" x="0px" y="0px"
	 viewBox="0 0 136.8 176.9" style="enable-background:new 0 0 136.8 176.9;" xml:space="preserve">
<style type="text/css">
	.st0{fill:#B46868;}
</style>
<g id="Layer_2_1_">
	<g id="Layer_1-2">
		<path class="st0" d="M108.7,119.6c0-10.8,0-21.8,0-32.7c0-6.3,4.1-11.3,10.4-12.9c4.9-1.3,11,1.5,13.7,6.7
			c0.8,1.8,1.3,3.7,1.2,5.7c0.1,12.6,0.1,25.1,0,37.7c0.1,6.7-5.2,12.2-11.9,12.3c-0.1,0-0.2,0-0.4,0c-5.8,0.1-11.7,0-17.6,0
			c-3.6,0-5.5,1.6-5.5,5c0,8.8,0,17.6,0.3,26.5c0.1,4.1-2.5,8.2-6.3,8.9c-4.9,0.8-8.8-1.4-9.8-5.8c-0.4-1.7-0.6-3.4-0.6-5.2
			c-0.1-11.7-0.1-23.4,0-35.1c0.1-6.7,4.1-10.7,11-10.7c4.8,0,9.7,0,14.6-0.1C108.1,119.9,108.3,119.7,108.7,119.6z"/>
		<path class="st0" d="M27.6,120c5.9,0,11.1,0,16.3,0c6,0,10,4.1,10.1,10c0,12.8,0,25.7,0,38.5c0,5.4-2.7,8.2-7.8,8.3
			c-5.3,0-8.6-3.1-8.6-8.5c0-8.6,0-17.2,0-25.8c0-4.6-1.4-6-5.9-6c-5.4,0-10.7,0-16.1,0c-7.6,0-13.1-5.2-13.2-12.7
			c-0.2-12.6-0.2-25.2,0-37.7c0.1-7,5.7-11.9,13.2-11.8c6.8,0,12.2,5.6,12.2,12.3c0,0.1,0,0.1,0,0.2c0.1,9.6,0,19.2,0,28.8L27.6,120
			z"/>
		<path class="st0" d="M39.6,51.5c1.7-2.5,3.2-4.5,4.5-6.8c0.9-1.6,1.6-3.2-0.5-4.9C27.7,27.7,33.6,8.3,51,2.1
			c12.5-4.5,27.5-1.9,35.6,8c8.6,10.6,5.3,24.9-7.1,31.5c-5.2,2.8-10.9,4.2-16.8,4.3c-3.2,0.2-6.2,1.1-9.1,2.5
			C49.3,50.5,45.1,52.5,39.6,51.5z M67.3,23.1c-2.2-1.5-3.5-3.1-4.6-3s-2.4,1.9-2.6,3.1c-0.1,0.7,1.7,2.5,2.6,2.5
			C63.9,25.8,65.1,24.5,67.3,23.1z M75.2,18.5c-1.3,2.2-2.9,3.6-2.7,4.6s2,2.4,3.3,2.6c0.8,0.1,2.8-1.9,2.7-2.5
			C78.2,21.8,76.8,20.6,75.2,18.5z M54.5,23.4c-2.1-1.6-3.2-3.3-4.3-3.2s-2.5,1.7-2.9,2.9c-0.2,0.6,1.5,2.6,2.5,2.7
			C51,25.8,52.3,24.6,54.5,23.4z"/>
		<path class="st0" d="M68.1,97.6c10.2,0,20.4,0,30.6,0c3.7,0,4.4,1.1,4.5,6.3c0,4.4-0.9,5.6-4.6,5.6c-20.4,0-40.8,0-61.3,0
			c-3.2,0-4.5-1.6-4.4-4.6c0.1-1,0.1-2,0-3c-0.2-3.2,1.3-4.4,4.5-4.4C47.7,97.6,57.9,97.6,68.1,97.6z"/>
		<path class="st0" d="M15.8,39.3C25,38.4,32.2,47,32.1,55.4c-0.3,8.7-7.3,15.7-16,15.8c-8.8,0-16.5-7.5-16-16.4
			C0.5,45.7,6.6,39.3,15.8,39.3z"/>
		<path class="st0" d="M136.7,55.3c0,8.8-7.1,15.9-15.9,16c-0.1,0-0.2,0-0.3,0c-8.7-0.2-15.7-7.3-15.8-16c-0.1-9.1,8-16.2,16.4-16.1
			C129.2,39.2,138,47.9,136.7,55.3z"/>
	</g>
</g>
</svg>
