<?xml version="1.0" encoding="utf-8"?>
<!-- Generator: Adobe Illustrator 24.3.0, SVG Export Plug-In . SVG Version: 6.00 Build 0)  -->
<svg version="1.1" id="Layer_1" xmlns="http://www.w3.org/2000/svg" xmlns:xlink="http://www.w3.org/1999/xlink" x="0px" y="0px"
	 viewBox="0 0 226 131.7" style="enable-background:new 0 0 226 131.7;" xml:space="preserve">
<style type="text/css">
	.st0{fill:#B46868;}
</style>
<g id="Layer_2_1_">
	<g id="Layer_1-2">
		<path class="st0" d="M114.9,61c6.3-4.6,13.2-5,20-4.9c13.4,0.1,26.6-0.9,39.4-5c13.1-4.1,24.7-10.6,34.5-20.3
			c3.2-3.1,6.6-5.1,11.2-3.2c6.2,2.6,8.2,9.1,3.5,14.8c-6.2,7.5-12.8,15.1-20.4,21s-16.8,10-25.4,14.5c-2.3,1.2-3.4,2.4-3.6,5.1
			c-1.2,14.9-2.6,29.8-4.2,44.7c-0.1,1.4-2,3.7-3.1,3.7c-14.3,0.2-28.6,0.2-43.3,0.2c-0.1-1.9-0.3-3.5-0.3-5.1
			c0-13.2-0.2-26.3,0-39.5C123.2,77.6,121,69,114.9,61z"/>
		<path class="st0" d="M103.4,131.4H54.9c-1-11.7-1.9-23.2-2.9-34.8c-0.1-0.7-0.1-1.3-0.1-2c0.1-5.6-1.5-9.3-7.5-12.1
			c-18-8.7-31.4-22.8-41.8-39.7c-3.9-6.4-3.5-10.9,1-14.2s9.6-2.2,14.3,3.3c10.3,12,21.5,23,37.3,27.2c8.6,2.3,17.7,2.8,26.5,3.8
			c5.3,0.6,10.7,0.4,15.9,1c9.2,1,13.7,4.6,15.6,13.5c1.3,6.1,1.3,12.4,1.9,19.3c-2.8-0.7-4.6-1.1-6.3-1.6l-5.6-1.4L103.4,131.4z"/>
		<path class="st0" d="M144.9,0c13.3,0.3,23.9,11.1,24,24.4c-0.2,13.3-11,24-24.3,24.1c-13.4,0-24.6-11.4-24.2-24.7
			C120.6,10.5,131.6-0.1,144.9,0z"/>
		<path class="st0" d="M51,32.5C51.2,19.8,61.6,9.6,74.4,9.8c0,0,0,0,0,0c12.9,0.1,23.2,10.5,23.2,23.4C97.5,46,87,56.4,74.2,56.3
			S50.9,45.8,51,32.9C51,32.8,51,32.7,51,32.5z"/>
	</g>
</g>
</svg>
