<?xml version="1.0" encoding="utf-8"?>
<!-- Generator: Adobe Illustrator 24.3.0, SVG Export Plug-In . SVG Version: 6.00 Build 0)  -->
<svg version="1.1" id="Layer_1" xmlns="http://www.w3.org/2000/svg" xmlns:xlink="http://www.w3.org/1999/xlink" x="0px" y="0px"
	 viewBox="0 0 570.1 611.9" style="enable-background:new 0 0 570.1 611.9;" xml:space="preserve">
<style type="text/css">
	.st0{fill:#B46868;}
</style>
<g id="Layer_2_1_">
	<g id="Layer_1-2">
		<path class="st0" d="M120.5,353.8v-15.4c3.8-0.6,7.4-1,10.9-1.9c15.3-3.7,24.4-14.3,30.4-28.1s8.2-28.4,8.3-43.4
			c0.1-29.2,0-58.3,0-87.5c-0.1-52.9,35.9-99.1,87.2-112c4.7-1.2,9.5-1.9,14.8-3V48.7h25.5v13.6c7.1,1.6,13.6,2.8,20,4.7
			c48.8,14.4,82.3,59.2,82.4,110.1c0,29.3-0.1,58.7,0,88c0,14.4,2.2,28.5,7.7,42c7.3,17.9,19.6,29.5,39.8,30.9
			c0.7,0.1,1.3,0.3,2,0.5v15.3L120.5,353.8z"/>
		<path class="st0" d="M335.1,528.2c0,13.7,1.3,27.5-0.3,40.9c-3.5,29.9-25.7,44.7-54.7,42.2c-28.4-2.4-45.1-20.3-45.9-48.9
			c-0.6-23.1-0.8-46.3,0.1-69.5c0.8-20.9,9.1-38.5,30.3-45.6c20.9-7,41.3-5.7,58,11.1c9.5,9.6,12.8,22.1,13.2,35.2
			c0.4,11.5,0.1,23,0.1,34.5L335.1,528.2z M306.1,527.3h0.8c0-9.3,0.2-18.6-0.1-28c-0.1-4.3-0.6-8.6-1.6-12.8
			c-2.5-10.1-9.6-15.4-19.9-15.5s-17.7,5.1-20.4,15c-1.2,4.5-1.8,9.1-1.8,13.8c-0.2,18.7-0.1,37.3,0,55.9c0,3.5,0.3,7,0.9,10.4
			c1.6,8,5.3,14.4,13.6,17c14.2,4.5,27-3,28.3-17.9C307,552.6,306.1,539.9,306.1,527.3L306.1,527.3z"/>
		<path class="st0" d="M214.1,489.6H186c-0.3-1.6-0.6-3.2-0.8-4.8c-1.4-7.8-6-12.7-13.1-13.9c-8.6-1.4-16.1,1.4-19.3,7.3
			c-3.6,6.5-2.4,14.7,3,19.8c4.9,4.8,10.8,8.8,16.5,12.7c9.1,6.4,19.1,11.7,27.6,18.8c15.1,12.5,19.7,29.2,15.8,48.2
			c-4,19.2-20.4,32.6-41.8,33.9c-6.3,0.4-12.6,0.1-18.9-1c-22.5-3.9-38.3-25-35.6-47.3h28c0.1,0.8,0.3,1.6,0.4,2.3
			c1.7,13.3,8.9,19.4,22.4,18.5c14.3-0.9,22.1-14.8,14.7-27c-3.1-5.1-8-9.4-12.8-13c-7.5-5.5-15.7-10.1-23.4-15.3
			c-10.8-7.3-20.2-15.9-24.4-28.8c-9.5-29.5,9.2-55.9,40.4-56.7c7.3-0.2,14.6,0.8,21.6,2.9C203.9,451.5,215.2,468.8,214.1,489.6z"/>
		<path class="st0" d="M352.7,563.3h28c0.2,1.2,0.5,2.3,0.7,3.4c2.5,14.1,12.8,20.6,26.7,16.9c12-3.2,17.1-17.5,9.2-28.1
			c-3.9-5.2-9.4-9.4-14.7-13.3c-7.8-5.7-16.3-10.4-24.2-15.9c-8.3-5.8-15.2-13-19.3-22.5c-10-23.7-1.1-58.4,39-60.5
			c5.7-0.3,11.3,0.3,16.8,1.5c20.8,4.7,33.9,22.6,32.7,44.5h-28.3c-0.2-1.3-0.5-2.5-0.7-3.8c-2.4-11.9-11-17.4-22.9-14.4
			c-10.2,2.5-15,13.4-9.4,22.9c2.3,3.8,5.4,7.2,9.1,9.8c7.6,5.4,16,9.6,23.5,15.1s15.7,11.1,21.5,18.3c11.9,14.7,13,31.9,5.6,49
			c-7.2,16.7-21.6,23.9-38.9,25.3c-6.1,0.5-12.3,0.2-18.4-0.9C365.7,606.7,349.5,585.2,352.7,563.3z"/>
		<path class="st0" d="M570.1,147.8c-0.6,36.8-14.7,71.9-42.9,101.2c-2,2.2-4.6,3.8-7.4,4.7c-4.9,1.4-10-0.9-12.3-5.3
			c-2.5-4.5-1.9-9.7,2.1-13.8c9.3-9.3,17.2-20,23.3-31.7c32.4-61.9,8.5-138.4-53.4-170.9c-7.1-3.7-14.6-6.8-22.2-9.1
			c-0.6-0.2-1.3-0.3-1.9-0.5c-6.9-2.2-10.4-7.9-8.7-14.1c1.8-6.5,7.8-9.8,15-7.7c34,9.9,61.3,29.3,81.7,58.3
			C561.1,84.4,569.9,112.9,570.1,147.8z"/>
		<path class="st0" d="M0,154.6C0,78.7,43,20.5,105.5,1.5c1.6-0.5,3.2-1,4.8-1.3c5.8-1.2,11.6,2.4,13.1,8.1
			C125,14,122,19.8,116.2,22c-7.3,2.8-14.9,5-21.9,8.4c-78.1,38.1-96,139.4-35.7,202.4c0.8,0.8,1.7,1.6,2.4,2.5
			c3.9,4.4,3.8,11.2-0.3,15.4c-4.1,4.3-10.9,4.7-15.4,0.7c-4.2-3.8-8-8-11.6-12.4C11.4,211.4,0.3,179.6,0,154.6z"/>
		<path class="st0" d="M523.6,139c-0.6,24.6-8.6,45.2-25.3,62.2c-6.5,6.6-16.5,4.6-19.4-3.7c-1.9-5.3,0.4-9.3,3.9-13
			c9.9-10.1,16-23.2,17.5-37.3c3.3-29.6-14.3-57.5-42.4-67.4c-1.6-0.6-3.2-1-4.7-1.6c-5.8-2-8.9-8.3-7-14.2
			c1.7-5.8,7.6-8.9,13.9-7.4c32.4,7.8,59.7,39.7,62.8,73.3C523.2,133.3,523.4,136.7,523.6,139z"/>
		<path class="st0" d="M46.2,141.1c2.8-43,28.1-75.1,63.2-84.3c4.7-1.2,9.2-0.7,11.7,3.2c2,3.3,2.8,7.2,2.4,11
			c-0.5,4.7-4.8,6.6-9.2,8.1c-21.1,6.9-35.6,20.9-42.2,42c-7.2,23.4-1.8,44.4,14.3,62.7c0.7,0.8,1.4,1.4,2.1,2.2
			c4.4,5.3,4.3,11.8-0.4,16.2c-4.4,4.2-11.4,4.1-16.2-0.6c-11.2-10.9-19.1-24.7-22.6-39.9C47.5,153.6,46.8,145.3,46.2,141.1z"/>
		<path class="st0" d="M239.2,365.4h91.4c-1.5,18.4-22.7,36.1-43.6,36.5C263.6,402.5,241.9,386.1,239.2,365.4z"/>
	</g>
</g>
</svg>
