<?xml version="1.0" encoding="utf-8"?>
<!-- Generator: Adobe Illustrator 24.3.0, SVG Export Plug-In . SVG Version: 6.00 Build 0)  -->
<svg version="1.1" id="Layer_1" xmlns="http://www.w3.org/2000/svg" xmlns:xlink="http://www.w3.org/1999/xlink" x="0px" y="0px"
	 viewBox="0 0 981.2 981.4" style="enable-background:new 0 0 981.2 981.4;" xml:space="preserve">
<style type="text/css">
	.st0{fill:#B46868;}
</style>
<g id="Layer_2_1_">
	<g id="Layer_1-2">
		<path class="st0" d="M611.8,922.4c77.4-25.2,143.5-67.3,199.7-125.6c-0.5-0.6-1.1-1.1-1.8-1.6c-41.3-20.8-82.4-42-124-62.3
			c-11.4-5.6-24-8.6-35.2-12.5c13.5-25.3,20-52.7,17.5-82.7l9.7,1.6c25,4,48.7,12.3,71.9,22.1c39.9,16.7,79.6,33.8,119.5,50.8
			l5.3,2.3c36.8-61.8,58.6-128,63-200.3l43.8,2c-0.9,9.8-1.4,19.4-2.7,28.8C958,695.2,882,811.2,758.9,897.6
			c-39.2,27.5-82.1,48-127.6,63c-7,2.3-7,2.3-9.2-4.8C618.7,944.9,615.3,933.9,611.8,922.4z"/>
		<path class="st0" d="M159.3,183.2c-9.5-9.2-18.9-18.3-28.1-27.3c-0.5-0.6-1-1.3-1.5-2C205.5,81,292.2,28.3,396.8,8.8
			C492.5-9,585.9,0.6,677.8,33.3l-14.2,37c-1.5,3.9-4.1,1.6-6.2,1c-18-5.3-35.8-11.7-54.1-16c-68.8-16.1-138-18.3-207.5-3.6
			c-2.4,0.5-4.8,1.1-7.2,1.6c0,0.6,0,1.2,0.2,1.8c23.5,45.9,46.6,92.1,74.3,135.7c5.9,9.4,13.4,17.8,20.1,26.6
			c0.9,1.1,1.8,2.3,2.6,3.2c-28.1,11-51.9,26.7-65.4,56.5c-10.5-12-21.7-22.6-30.3-35.1c-22.9-33.1-44.9-66.9-66.9-100.6
			c-10.3-15.7-19.9-31.9-29.9-47.9c-1-1.5-2-3-3.2-4.9C241.3,113,199.2,146.1,159.3,183.2z"/>
		<path class="st0" d="M48.8,411c14.4-1,27.8-1.6,41.2-3c33.1-3.4,66.3-6.5,99.2-11.2c14.5-2.1,28.4-8,42.6-12.2
			c2.2-0.6,4.3-1.5,5.2-1.9c1.7,14.5,3,28.8,5.1,43.1c2.2,14.5,7,28.1,19.4,38.2l-5,2.4c-34.9,16.5-72.2,23.8-109.9,30
			c-33,5.4-66,10.6-99.1,15.7c-4.4,0.7-5.2,2.2-5,6.4c4.6,68.3,23.4,132.5,56.8,192.3c0.6,1,1.1,2,1.9,3.6L65.6,735
			c-94.8-159.9-89.7-381,34.2-540.6l33,25.2C89.7,276.8,61.9,340.2,48.8,411z"/>
		<path class="st0" d="M88.3,771.8c10.7-7.4,20.8-14.5,30.9-21.4c1.1-0.7,2.2-1.4,2.8-1.8c13.8,16.4,26.6,33.2,41.2,48.5
			c14.5,15.2,29.8,29.5,46.1,42.8c16.3,13.3,34,24.9,52.4,38.2c8.1-28.8,16.1-55.7,23.2-82.8s13.2-54.6,19.7-81.5
			c26.8,12.1,55.7,12.6,86.1,9.3c-1.2,11.3-1.6,22.5-3.6,33.3c-9.7,52.4-19.8,104.6-29.7,157c-0.3,1.6-0.6,3.2-1,5.4
			c2,0.7,3.8,1.3,5.6,1.9c67.9,20.5,139.7,24.3,209.4,11.2c7.5-1.4,6.9-2.3,8.5,5.8c2.2,11.2,4.5,22.4,7,34.2
			c-85.5,16.5-169.1,11.8-251.2-15.7C233.4,921.9,151.4,860,88.3,771.8z"/>
		<path class="st0" d="M979.7,477.2h-41.9c-2.7-71.8-20.8-139.6-55.8-203.9c-45.2,44.4-92.5,85.7-130.5,135.8
			c-14.7-26.1-40.4-44.2-70-49.2c0.9-1.7,1.7-3.2,2.6-4.8c13.7-24.2,31.5-45.4,49.6-66.2c28-32.2,56.2-64.1,84.3-96.2
			c1.1-1.2,2.2-2.5,3.5-4.1c-35.2-38.7-76.9-71-123.2-95.4l19.3-37.1c71.5,38.1,130.5,89.8,176,156.5
			C947.9,292,976,380.1,979.7,477.2z"/>
		<path class="st0" d="M380.2,550.9c-18.8-2.8-37.1-5.7-55.4-8.2c-9.3-1.3-18.5-4.7-28.4-0.4c-1.4-15.1-2.8-29.6-4.1-44.2
			c-0.6-6.8-1.1-13.6-2.1-20.4c-0.5-2.1-1.8-3.9-3.6-5c-4.2-2.4-8.7-4.1-13-6.3c-13.2-6.8-22-17.4-25-31.9
			c-2.7-13-4.4-26.2-6.1-39.4c-0.4-4-0.2-8,0.6-11.9c1.8-11.4,6.3-14.6,18-12.5c-0.1-3.2-0.2-6.2-0.4-9.3
			c-0.4-6.3-0.8-12.6-1.3-18.9c-0.4-5.9,1.2-11.7,4.8-16.4c5-6.9,12.3-8.6,19.8-4.5s9,3.7,15-2.5c1.4-1.5,2.7-2.9,4.2-4.3
			c4.9-4.5,8.6-4.9,14.4-1.5c1.4,0.8,2.8,1.9,4.2,2.7c6.3,3.9,10.3,3.4,15.6-1.8c8.8-8.8,11.3-9.1,22.6-3.2c7.5,4,8.9,4,14-1.3
			c4.4-4.5,8.5-9.4,15.8-6.4c8.3,3.4,14.1,9.1,15,18.3c1.2,12.6,1.8,25.2,2.6,37.9c1.1,18.1,2.2,36.2,3.4,54.3
			c1.6,24.1-10.8,45.4-32.9,55.5c-3.9,1.8-4.5,3.8-4.1,7.6c2.2,23.7,4.3,47.4,6.4,71.1C380.3,548.8,380.2,549.4,380.2,550.9z"/>
		<path class="st0" d="M607.5,508.6l63.8,58.9c-1,2.1-2.4,5.4-3.9,8.7c-5,11-10.2,22-15.1,33.2c-0.7,1.5-0.9,4.2-0.1,5.4
			c12.5,17.5,14.4,36.9,10,57.2c-2.1,10.3-4.8,20.4-8.1,30.3c-2,5.8-5.2,11.1-9.5,15.5c-6.9,6.8-14.3,5.3-19.5-3.1
			c-0.8,1.4-1.7,2.5-2.3,3.8c-3.9,7.9-7.9,15.8-11.8,23.7c-2.6,5.3-7,9.5-12.4,11.8c-7.7,3.4-15.1,1-19.3-6.2
			c-4.1-6.9-5.8-7.5-13.3-5.4c-0.6,0.2-1.3,0.4-1.9,0.6c-11.8,3.5-14.1,2.5-19.8-8.4c-3.9-7.6-7.5-9.1-15.9-6.6
			c-10,2.9-13.4,1.6-19.1-7.3c-0.9-1.4-1.8-2.8-2.6-4.2c-2.1-3.6-5.2-5-9.3-3.8c-1.8,0.5-3.5,1-5.3,1.4c-7.8,2-11.8,0.4-15.7-6.7
			c-4-7.3-4.4-14.7-0.6-22.4c13.4-26.6,26.5-53.3,39.7-80c10.9-22,30.9-33.8,55.5-32c4.9,0.4,6.9-1.2,8.8-5.4
			c8.1-18,16.6-35.9,25-53.9C605.7,512.1,606.5,510.7,607.5,508.6z"/>
		<path class="st0" d="M506.1,614.1L467.2,693c-9.1-1-19.5-2.3-29.8-3.3c-1.8-0.2-4.4,0.7-5.4,2c-13.3,18-31.9,26.2-53.5,28.2
			c-19.6,1.8-39.4,0.1-58.4-4.9c-4.3-1.2-8.5-2.9-12.3-5.2c-6.8-4.1-7-9-1.4-14.5c0.5-0.5,1-1.2,2-2.3c-3.8-0.6-7.3-0.6-10.2-1.8
			c-5-2.1-10.2-4.2-14.1-7.6c-6.5-5.8-6.3-13.9-0.6-20.5c5.4-6.3,5.5-7.9,0.8-14.8c-0.9-1.4-1.9-2.7-2.8-4.2c-4.4-7-4-10.8,1.9-16.8
			c8.5-8.6,8.7-10.8,1.9-20.9c-4-5.9-4.4-10.8,1-16.2c7.7-7.7,8.4-14.6,1.2-22.7c-2.9-3.3-2.2-7.4,0-11.2c4.7-8.1,13.8-12.5,23.8-11
			c18.9,2.8,37.8,5.7,56.8,8.5c11.2,1.7,22.4,3.2,33.6,5c22.9,3.5,41.2,20.8,45.9,43.5c0.9,4.1,2.7,5.3,6.5,5.7
			C471,609.8,488.2,611.9,506.1,614.1z"/>
		<path class="st0" d="M541.9,387.7l54.4-24c14.3-6.3,14.3-6.3,22.5-18.6c8.3,7.2,16.5,14.5,25,21.5c1.4,1.1,4,2,5.5,1.5
			c19.6-7.3,38.3-4.4,56.6,4.2c15.1,7.1,27.2,17.8,36.8,31.4c2.3,3.2,4.1,6.8,5.5,10.6c2.5,7.3,0.8,9.9-7.2,11.6c0.8,1,1.6,2,2.5,3
			c5.3,5,10.7,10,16.1,14.9c4.8,4.3,7.6,10.3,7.8,16.8c0.3,8.1-3.7,13.2-11.6,15.1c-7.2,1.7-8.5,3.3-8.7,10.6c0,1,0,2,0,3
			c-0.3,12.1-1.7,13.9-13.5,16.4c-8.8,1.9-11.2,4.9-11.2,14.2c0,9.3-2.3,12.3-11.2,15.1c-0.5,0.2-1,0.3-1.4,0.4
			c-10.6,3-10.6,3-10.9,13.9c-0.2,9.2-3.5,12.8-12.6,14.2c-7.2,1.2-14.5-1-19.7-6.1c-21.9-20.4-43.9-40.7-66-61
			c-18-16.7-23.5-40.5-14.3-63.4c1.4-3.4,0.9-5.2-1.8-7.5c-12.9-11.1-25.5-22.4-38.3-33.6C544.9,390.5,543.6,389.3,541.9,387.7z"/>
		<path class="st0" d="M405.7,307.6c3.4-1.6,7.8-3.5,12-6c1.5-0.9,3.2-3,3.4-4.7c1.4-17.5,8.8-31.9,21-44.1
			c10.2-10.1,22.2-18.2,35.4-23.9c4.6-2,9.4-3.2,14.4-3.4c9.1-0.4,13,4.4,11.5,13.8c1.5-0.5,2.9-0.8,4.1-1.4
			c8.9-3.9,17.7-7.7,26.5-11.7c5.5-2.5,11.8-2.9,17.5-1c8.1,2.4,12,9,10.4,17.3c-1.3,6.8-0.3,8.8,6,11.8l1.3,0.6
			c13,6,13.3,6.5,11.1,20.3c-1.3,8.3,0.4,11.4,8.2,14.8c9.2,4.1,10.9,6.9,9.9,16.9c-0.1,1.3-0.3,2.6-0.5,4c-1,6.8-0.1,8.6,6,11.4
			c5.8,2.6,12,4.8,11.5,13c-0.5,9.2-4.1,16.5-12.7,20.5c-14.5,6.6-29.2,13-43.8,19.4c-13.4,5.9-26.8,11.8-40.2,17.7
			c-22,9.7-46.1,5.3-63-11.8c-3.1-3.2-5.3-3.1-8.9-1.3c-10.5,5.2-21.3,10.1-32.5,15.4c-0.7-9.7-1.4-18.8-2-27.9
			c-0.9-13.6-1.5-27.2-2.7-40.8C409.1,320.5,407.2,314.5,405.7,307.6z"/>
	</g>
</g>
</svg>
